<svg width="27" height="27" viewBox="0 0 27 27" fill="none" xmlns="http://www.w3.org/2000/svg">
<path d="M13.5 26.775C20.8316 26.775 26.775 20.8316 26.775 13.5C26.775 6.16843 20.8316 0.225006 13.5 0.225006C6.16842 0.225006 0.224998 6.16843 0.224998 13.5C0.224998 20.8316 6.16842 26.775 13.5 26.775Z" fill="#2887D2"/>
<path d="M13.5 25.425C20.086 25.425 25.425 20.086 25.425 13.5C25.425 6.91402 20.086 1.57501 13.5 1.57501C6.914 1.57501 1.575 6.91402 1.575 13.5C1.575 20.086 6.914 25.425 13.5 25.425Z" fill="#FEFEFE"/>
<path d="M16.875 6.52502C15.975 5.62502 14.85 5.17502 13.5 5.17502C10.8 5.17502 8.775 7.42502 8.775 9.90002V11.25C8.775 11.25 8.775 11.475 9 11.475H10.35C10.575 11.475 10.575 11.25 10.575 11.25V9.90002C10.575 8.32502 11.925 6.97502 13.5 6.97502C14.175 6.97502 15.075 7.42502 15.525 7.87502C16.2 8.32502 16.425 9.22502 16.425 9.90002V12.375C16.425 12.825 16.875 13.275 17.325 13.275C17.55 13.275 17.775 13.275 18 13.05C18.225 12.825 18.225 12.6 18.225 12.375V9.90002C18.225 8.55002 17.775 7.42502 16.875 6.52502Z" fill="#2887D2"/>
<path d="M18.45 12.15H8.55C7.875 12.15 7.425 12.825 7.425 13.5V21.6C7.425 21.825 7.425 21.825 7.65 21.825H19.35C19.575 21.825 19.575 21.825 19.575 21.6V13.5C19.575 12.825 19.125 12.15 18.45 12.15Z" fill="#3A9BE6"/>
<path d="M8.55 12.15C7.875 12.15 7.425 12.825 7.425 13.5V21.6C7.425 21.825 7.425 21.825 7.65 21.825H13.5V12.15H8.55Z" fill="#2887D2"/>
<path d="M13.55 17.05C13.925 16.925 14.3 16.55 14.3 16.05C14.3 15.55 13.8 15.05 13.3 15.05C12.8 15.05 12.3 15.55 12.3 16.05C12.3 16.55 12.675 16.925 13.05 17.05C12.3 17.175 11.8 17.8 11.8 18.55V19.3C11.8 19.3 11.8 19.425 11.925 19.425H14.675C14.8 19.425 14.8 19.3 14.8 19.3V18.55C14.8 17.8 14.3 17.175 13.55 17.05Z" fill="#FEFEFE"/>
</svg>
