<svg width="25" height="25" viewBox="0 0 25 25" fill="none" xmlns="http://www.w3.org/2000/svg">
<path d="M12.5 24.7917C19.2885 24.7917 24.7917 19.2885 24.7917 12.5C24.7917 5.71149 19.2885 0.208328 12.5 0.208328C5.7115 0.208328 0.208336 5.71149 0.208336 12.5C0.208336 19.2885 5.7115 24.7917 12.5 24.7917Z" fill="#2887D2"/>
<path d="M12.5 23.5417C18.5981 23.5417 23.5417 18.5981 23.5417 12.5C23.5417 6.40185 18.5981 1.45833 12.5 1.45833C6.40186 1.45833 1.45834 6.40185 1.45834 12.5C1.45834 18.5981 6.40186 23.5417 12.5 23.5417Z" fill="#FEFEFE"/>
<path fill-rule="evenodd" clip-rule="evenodd" d="M8.54167 19.7917H16.4583C17.5 19.7917 18.125 19.375 18.3333 18.5417C18.5417 17.7083 18.125 16.6667 17.9167 15.8333C17.5 15.2083 17.2917 14.5833 16.6667 13.9583C16.25 13.5417 15.625 12.7083 15 12.5C14.5833 12.5 14.375 12.7083 14.1667 12.9167C13.125 13.3333 12.0833 13.3333 11.0417 12.9167C10.2083 12.7083 10.4167 12.2917 9.375 12.9167C6.875 14.5833 5 19.7917 8.54167 19.7917Z" fill="#2887D2"/>
<path d="M12.5 12.7083C14.5711 12.7083 16.25 11.0294 16.25 8.95833C16.25 6.88726 14.5711 5.20833 12.5 5.20833C10.4289 5.20833 8.75 6.88726 8.75 8.95833C8.75 11.0294 10.4289 12.7083 12.5 12.7083Z" fill="#2887D2"/>
</svg>
