<svg width="110" height="33" viewBox="0 0 110 33" fill="none" xmlns="http://www.w3.org/2000/svg">
<rect width="110" height="33" rx="4" fill="black"/>
<path d="M22.2787 5.50002H17.9616C17.5279 4.14669 16.3918 3.16669 15.0492 3.16669C13.7065 3.16669 12.5705 4.14669 12.1367 5.50002H7.81966C6.6836 5.50002 5.75409 6.55002 5.75409 7.83335V24.1667C5.75409 25.45 6.6836 26.5 7.81966 26.5H22.2787C23.4147 26.5 24.3443 25.45 24.3443 24.1667V7.83335C24.3443 6.55002 23.4147 5.50002 22.2787 5.50002ZM15.0492 5.50002C15.6172 5.50002 16.082 6.02502 16.082 6.66669C16.082 7.30835 15.6172 7.83335 15.0492 7.83335C14.4811 7.83335 14.0164 7.30835 14.0164 6.66669C14.0164 6.02502 14.4811 5.50002 15.0492 5.50002ZM17.1147 21.8334H9.88524V19.5H17.1147V21.8334ZM20.2131 17.1667H9.88524V14.8334H20.2131V17.1667ZM20.2131 12.5H9.88524V10.1667H20.2131V12.5Z" fill="#E6E7E8"/>
<path d="M38.2031 16.4414H35.0996V25H33.3838V16.4414H30.3076V15.0469H38.2031V16.4414ZM43.3848 24.2754C42.8971 24.8496 42.2044 25.1367 41.3066 25.1367C40.5046 25.1367 39.8962 24.902 39.4814 24.4326C39.0713 23.9632 38.8662 23.2842 38.8662 22.3955V17.6035H40.5273V22.375C40.5273 23.3138 40.917 23.7832 41.6963 23.7832C42.5029 23.7832 43.0475 23.4938 43.3301 22.915V17.6035H44.9912V25H43.4258L43.3848 24.2754ZM48.7646 15.8057V17.6035H50.0703V18.834H48.7646V22.9629C48.7646 23.2454 48.8193 23.4505 48.9287 23.5781C49.0426 23.7012 49.2432 23.7627 49.5303 23.7627C49.7217 23.7627 49.9154 23.7399 50.1113 23.6943V24.9795C49.7331 25.0843 49.3685 25.1367 49.0176 25.1367C47.7415 25.1367 47.1035 24.4326 47.1035 23.0244V18.834H45.8867V17.6035H47.1035V15.8057H48.7646ZM50.8291 21.2334C50.8291 20.5088 50.9727 19.8571 51.2598 19.2783C51.5469 18.695 51.9502 18.2484 52.4697 17.9385C52.9893 17.624 53.5863 17.4668 54.2607 17.4668C55.2588 17.4668 56.0677 17.7881 56.6875 18.4307C57.3118 19.0732 57.6491 19.9255 57.6992 20.9873L57.7061 21.377C57.7061 22.1061 57.5648 22.7578 57.2822 23.332C57.0042 23.9062 56.6032 24.3506 56.0791 24.665C55.5596 24.9795 54.958 25.1367 54.2744 25.1367C53.2308 25.1367 52.3945 24.7904 51.7656 24.0977C51.1413 23.4004 50.8291 22.473 50.8291 21.3154V21.2334ZM52.4902 21.377C52.4902 22.138 52.6475 22.735 52.9619 23.168C53.2764 23.5964 53.7139 23.8105 54.2744 23.8105C54.835 23.8105 55.2702 23.5918 55.5801 23.1543C55.8945 22.7168 56.0518 22.0765 56.0518 21.2334C56.0518 20.486 55.89 19.8936 55.5664 19.4561C55.2474 19.0186 54.8122 18.7998 54.2607 18.7998C53.7184 18.7998 53.2878 19.0163 52.9688 19.4492C52.6497 19.8776 52.4902 20.5202 52.4902 21.377ZM62.9834 19.1211C62.7646 19.0846 62.5391 19.0664 62.3066 19.0664C61.5456 19.0664 61.0329 19.3581 60.7686 19.9414V25H59.1074V17.6035H60.6934L60.7344 18.4307C61.1354 17.7881 61.6914 17.4668 62.4023 17.4668C62.6393 17.4668 62.8353 17.4987 62.9902 17.5625L62.9834 19.1211ZM65.7998 25H64.1387V17.6035H65.7998V25ZM64.0361 15.6826C64.0361 15.4274 64.1159 15.2155 64.2754 15.0469C64.4395 14.8783 64.6719 14.7939 64.9727 14.7939C65.2734 14.7939 65.5059 14.8783 65.6699 15.0469C65.834 15.2155 65.916 15.4274 65.916 15.6826C65.916 15.9333 65.834 16.1429 65.6699 16.3115C65.5059 16.4756 65.2734 16.5576 64.9727 16.5576C64.6719 16.5576 64.4395 16.4756 64.2754 16.3115C64.1159 16.1429 64.0361 15.9333 64.0361 15.6826ZM72.0342 25C71.9613 24.8587 71.8975 24.6286 71.8428 24.3096C71.3141 24.861 70.667 25.1367 69.9014 25.1367C69.1585 25.1367 68.5524 24.9248 68.083 24.501C67.6136 24.0771 67.3789 23.5531 67.3789 22.9287C67.3789 22.1403 67.6706 21.5365 68.2539 21.1172C68.8418 20.6934 69.6803 20.4814 70.7695 20.4814H71.7881V19.9961C71.7881 19.6133 71.681 19.3079 71.4668 19.0801C71.2526 18.8477 70.9268 18.7314 70.4893 18.7314C70.111 18.7314 69.8011 18.8271 69.5596 19.0186C69.318 19.2054 69.1973 19.4447 69.1973 19.7363H67.5361C67.5361 19.3307 67.6706 18.9525 67.9395 18.6016C68.2083 18.2461 68.5729 17.9681 69.0332 17.7676C69.498 17.5671 70.0153 17.4668 70.585 17.4668C71.4508 17.4668 72.1413 17.6855 72.6562 18.123C73.1712 18.556 73.4355 19.1667 73.4492 19.9551V23.291C73.4492 23.9564 73.5426 24.4873 73.7295 24.8838V25H72.0342ZM70.209 23.8037C70.5371 23.8037 70.8447 23.724 71.1318 23.5645C71.4235 23.4049 71.6423 23.1908 71.7881 22.9219V21.5273H70.8926C70.2773 21.5273 69.8148 21.6344 69.5049 21.8486C69.195 22.0628 69.04 22.3659 69.04 22.7578C69.04 23.0768 69.1449 23.332 69.3545 23.5234C69.5687 23.7103 69.8535 23.8037 70.209 23.8037ZM76.9561 25H75.2949V14.5H76.9561V25Z" fill="white"/>
<path d="M36.8594 9.25391C36.6667 9.52995 36.3971 9.73698 36.0508 9.875C35.707 10.0104 35.306 10.0781 34.8477 10.0781C34.3841 10.0781 33.9727 9.97005 33.6133 9.75391C33.2539 9.53516 32.9753 9.22526 32.7773 8.82422C32.582 8.42318 32.4818 7.95833 32.4766 7.42969V6.93359C32.4766 6.07682 32.6758 5.41276 33.0742 4.94141C33.4753 4.47005 34.0378 4.23438 34.7617 4.23438C35.3555 4.23438 35.8333 4.38672 36.1953 4.69141C36.5573 4.99349 36.7786 5.42318 36.8594 5.98047H36.1094C35.9688 5.22786 35.5208 4.85156 34.7656 4.85156C34.263 4.85156 33.8815 5.02865 33.6211 5.38281C33.3633 5.73438 33.2331 6.24479 33.2305 6.91406V7.37891C33.2305 8.01693 33.3763 8.52474 33.668 8.90234C33.9596 9.27734 34.3542 9.46484 34.8516 9.46484C35.1328 9.46484 35.3789 9.43359 35.5898 9.37109C35.8008 9.30859 35.9753 9.20312 36.1133 9.05469V7.77734H34.7969V7.16797H36.8594V9.25391ZM39.7539 10.0781C39.181 10.0781 38.7148 9.89062 38.3555 9.51562C37.9961 9.13802 37.8164 8.63411 37.8164 8.00391V7.87109C37.8164 7.45182 37.8958 7.07812 38.0547 6.75C38.2161 6.41927 38.4401 6.16146 38.7266 5.97656C39.0156 5.78906 39.3281 5.69531 39.6641 5.69531C40.2135 5.69531 40.6406 5.8763 40.9453 6.23828C41.25 6.60026 41.4023 7.11849 41.4023 7.79297V8.09375H38.5391C38.5495 8.51042 38.6706 8.84766 38.9023 9.10547C39.1367 9.36068 39.4336 9.48828 39.793 9.48828C40.0482 9.48828 40.2643 9.4362 40.4414 9.33203C40.6185 9.22786 40.7734 9.08984 40.9062 8.91797L41.3477 9.26172C40.9935 9.80599 40.4622 10.0781 39.7539 10.0781ZM39.6641 6.28906C39.3724 6.28906 39.1276 6.39583 38.9297 6.60938C38.7318 6.82031 38.6094 7.11719 38.5625 7.5H40.6797V7.44531C40.6589 7.07812 40.5599 6.79427 40.3828 6.59375C40.2057 6.39062 39.9661 6.28906 39.6641 6.28906ZM43.2227 4.75V5.77344H44.0117V6.33203H43.2227V8.95312C43.2227 9.1224 43.2578 9.25 43.3281 9.33594C43.3984 9.41927 43.5182 9.46094 43.6875 9.46094C43.7708 9.46094 43.8854 9.44531 44.0312 9.41406V10C43.8411 10.0521 43.6562 10.0781 43.4766 10.0781C43.1536 10.0781 42.9102 9.98047 42.7461 9.78516C42.582 9.58984 42.5 9.3125 42.5 8.95312V6.33203H41.7305V5.77344H42.5V4.75H43.2227ZM47.6289 10H46.9062V5.77344H47.6289V10ZM46.8477 4.65234C46.8477 4.53516 46.8828 4.4362 46.9531 4.35547C47.026 4.27474 47.1328 4.23438 47.2734 4.23438C47.4141 4.23438 47.5208 4.27474 47.5938 4.35547C47.6667 4.4362 47.7031 4.53516 47.7031 4.65234C47.7031 4.76953 47.6667 4.86719 47.5938 4.94531C47.5208 5.02344 47.4141 5.0625 47.2734 5.0625C47.1328 5.0625 47.026 5.02344 46.9531 4.94531C46.8828 4.86719 46.8477 4.76953 46.8477 4.65234ZM49.7695 4.75V5.77344H50.5586V6.33203H49.7695V8.95312C49.7695 9.1224 49.8047 9.25 49.875 9.33594C49.9453 9.41927 50.0651 9.46094 50.2344 9.46094C50.3177 9.46094 50.4323 9.44531 50.5781 9.41406V10C50.388 10.0521 50.2031 10.0781 50.0234 10.0781C49.7005 10.0781 49.457 9.98047 49.293 9.78516C49.1289 9.58984 49.0469 9.3125 49.0469 8.95312V6.33203H48.2773V5.77344H49.0469V4.75H49.7695ZM53.1992 7.84766C53.1992 7.43359 53.2799 7.0612 53.4414 6.73047C53.6055 6.39974 53.832 6.14453 54.1211 5.96484C54.4128 5.78516 54.7448 5.69531 55.1172 5.69531C55.6927 5.69531 56.1576 5.89453 56.5117 6.29297C56.8685 6.69141 57.0469 7.22135 57.0469 7.88281V7.93359C57.0469 8.34505 56.9674 8.71484 56.8086 9.04297C56.6523 9.36849 56.4271 9.6224 56.1328 9.80469C55.8411 9.98698 55.5052 10.0781 55.125 10.0781C54.5521 10.0781 54.0872 9.87891 53.7305 9.48047C53.3763 9.08203 53.1992 8.55469 53.1992 7.89844V7.84766ZM53.9258 7.93359C53.9258 8.40234 54.0339 8.77865 54.25 9.0625C54.4688 9.34635 54.7604 9.48828 55.125 9.48828C55.4922 9.48828 55.7839 9.34505 56 9.05859C56.2161 8.76953 56.3242 8.36589 56.3242 7.84766C56.3242 7.38411 56.2135 7.00911 55.9922 6.72266C55.7734 6.43359 55.4818 6.28906 55.1172 6.28906C54.7604 6.28906 54.4727 6.43099 54.2539 6.71484C54.0352 6.9987 53.9258 7.40495 53.9258 7.93359ZM58.6367 5.77344L58.6602 6.30469C58.9831 5.89844 59.4049 5.69531 59.9258 5.69531C60.819 5.69531 61.2695 6.19922 61.2773 7.20703V10H60.5547V7.20312C60.5521 6.89844 60.4818 6.67318 60.3438 6.52734C60.2083 6.38151 59.9961 6.30859 59.707 6.30859C59.4727 6.30859 59.2669 6.37109 59.0898 6.49609C58.9128 6.62109 58.7747 6.78516 58.6758 6.98828V10H57.9531V5.77344H58.6367Z" fill="white"/>
</svg>
