<svg width="26" height="26" viewBox="0 0 26 26" fill="none" xmlns="http://www.w3.org/2000/svg">
<path d="M16.25 4.875H14.625V1.625H11.375V4.875H9.75V0H16.25V4.875Z" fill="#0DA616"/>
<path d="M20.3125 26H5.6875C4.7897 26 4.0625 25.2728 4.0625 24.375V6.5H21.9375V24.375C21.9375 25.2728 21.2103 26 20.3125 26Z" fill="#1890FF" fill-opacity="0.46"/>
<path d="M8.9375 22.75C9.386 22.75 9.75 22.386 9.75 21.9375V10.5625C9.75 10.114 9.386 9.75 8.9375 9.75C8.489 9.75 8.125 10.114 8.125 10.5625V21.9375C8.125 22.386 8.489 22.75 8.9375 22.75Z" fill="#0164D5"/>
<path d="M13 22.75C13.4485 22.75 13.8125 22.386 13.8125 21.9375V10.5625C13.8125 10.114 13.4485 9.75 13 9.75C12.5515 9.75 12.1875 10.114 12.1875 10.5625V21.9375C12.1875 22.386 12.5515 22.75 13 22.75Z" fill="#0164D5"/>
<path d="M16.25 10.5625V21.9375C16.25 22.386 16.614 22.75 17.0625 22.75C17.511 22.75 17.875 22.386 17.875 21.9375V10.5625C17.875 10.114 17.511 9.75 17.0625 9.75C16.614 9.75 16.25 10.114 16.25 10.5625Z" fill="#0164D5"/>
<path d="M22.75 8.125H3.25V4.875C3.25 3.9772 3.9772 3.25 4.875 3.25H21.125C22.0228 3.25 22.75 3.9772 22.75 4.875V8.125Z" fill="#0CA26C"/>
</svg>
