<svg width="108" height="32" viewBox="0 0 108 32" fill="none" xmlns="http://www.w3.org/2000/svg">
<rect width="108" height="32" rx="4" fill="black"/>
<path d="M22.2787 5.50002H17.9616C17.5279 4.14669 16.3918 3.16669 15.0492 3.16669C13.7065 3.16669 12.5705 4.14669 12.1367 5.50002H7.81966C6.6836 5.50002 5.75409 6.55002 5.75409 7.83335V24.1667C5.75409 25.45 6.6836 26.5 7.81966 26.5H22.2787C23.4147 26.5 24.3443 25.45 24.3443 24.1667V7.83335C24.3443 6.55002 23.4147 5.50002 22.2787 5.50002ZM15.0492 5.50002C15.6172 5.50002 16.082 6.02502 16.082 6.66669C16.082 7.30835 15.6172 7.83335 15.0492 7.83335C14.4811 7.83335 14.0164 7.30835 14.0164 6.66669C14.0164 6.02502 14.4811 5.50002 15.0492 5.50002ZM17.1147 21.8334H9.88524V19.5H17.1147V21.8334ZM20.2131 17.1667H9.88524V14.8334H20.2131V17.1667ZM20.2131 12.5H9.88524V10.1667H20.2131V12.5Z" fill="#E6E7E8"/>
<path d="M38.0322 16.127H34.833V25H33.5273V16.127H30.335V15.0469H38.0322V16.127ZM43.2207 24.2686C42.7285 24.8473 42.0062 25.1367 41.0537 25.1367C40.2653 25.1367 39.6637 24.9089 39.249 24.4531C38.8389 23.9928 38.6315 23.3138 38.627 22.416V17.6035H39.8916V22.3818C39.8916 23.5029 40.3473 24.0635 41.2588 24.0635C42.2249 24.0635 42.8675 23.7035 43.1865 22.9834V17.6035H44.4512V25H43.248L43.2207 24.2686ZM48.0947 15.8125V17.6035H49.4756V18.5811H48.0947V23.168C48.0947 23.4642 48.1562 23.6875 48.2793 23.8379C48.4023 23.9837 48.612 24.0566 48.9082 24.0566C49.054 24.0566 49.2546 24.0293 49.5098 23.9746V25C49.1771 25.0911 48.8535 25.1367 48.5391 25.1367C47.974 25.1367 47.5479 24.9658 47.2607 24.624C46.9736 24.2822 46.8301 23.7969 46.8301 23.168V18.5811H45.4834V17.6035H46.8301V15.8125H48.0947ZM50.4873 21.2334C50.4873 20.5088 50.6286 19.8571 50.9111 19.2783C51.1982 18.6995 51.5947 18.2529 52.1006 17.9385C52.611 17.624 53.1921 17.4668 53.8438 17.4668C54.8509 17.4668 55.6644 17.8154 56.2842 18.5127C56.9085 19.21 57.2207 20.1374 57.2207 21.2949V21.3838C57.2207 22.1038 57.0817 22.751 56.8037 23.3252C56.5303 23.8949 56.1361 24.3392 55.6211 24.6582C55.1107 24.9772 54.5228 25.1367 53.8574 25.1367C52.8548 25.1367 52.0413 24.7881 51.417 24.0908C50.7972 23.3936 50.4873 22.4707 50.4873 21.3223V21.2334ZM51.7588 21.3838C51.7588 22.2041 51.9479 22.8626 52.3262 23.3594C52.709 23.8561 53.2194 24.1045 53.8574 24.1045C54.5 24.1045 55.0104 23.8538 55.3887 23.3525C55.7669 22.8467 55.9561 22.1403 55.9561 21.2334C55.9561 20.4222 55.7624 19.766 55.375 19.2646C54.9922 18.7588 54.4818 18.5059 53.8438 18.5059C53.2194 18.5059 52.7158 18.7542 52.333 19.251C51.9502 19.7477 51.7588 20.4587 51.7588 21.3838ZM62.3818 18.7383C62.1904 18.7064 61.9831 18.6904 61.7598 18.6904C60.9303 18.6904 60.3675 19.0436 60.0713 19.75V25H58.8066V17.6035H60.0371L60.0576 18.458C60.4723 17.7972 61.0602 17.4668 61.8213 17.4668C62.0674 17.4668 62.2542 17.4987 62.3818 17.5625V18.7383ZM64.9248 25H63.6602V17.6035H64.9248V25ZM63.5576 15.6416C63.5576 15.4365 63.6191 15.2633 63.7422 15.1221C63.8698 14.9808 64.0566 14.9102 64.3027 14.9102C64.5488 14.9102 64.7357 14.9808 64.8633 15.1221C64.9909 15.2633 65.0547 15.4365 65.0547 15.6416C65.0547 15.8467 64.9909 16.0176 64.8633 16.1543C64.7357 16.291 64.5488 16.3594 64.3027 16.3594C64.0566 16.3594 63.8698 16.291 63.7422 16.1543C63.6191 16.0176 63.5576 15.8467 63.5576 15.6416ZM71.5215 25C71.4486 24.8542 71.3893 24.5944 71.3438 24.2207C70.7559 24.8314 70.054 25.1367 69.2383 25.1367C68.5091 25.1367 67.9098 24.9316 67.4404 24.5215C66.9756 24.1068 66.7432 23.5827 66.7432 22.9492C66.7432 22.179 67.0348 21.582 67.6182 21.1582C68.2061 20.7298 69.0309 20.5156 70.0928 20.5156H71.3232V19.9346C71.3232 19.4925 71.1911 19.1416 70.9268 18.8818C70.6624 18.6175 70.2728 18.4854 69.7578 18.4854C69.3066 18.4854 68.9284 18.5993 68.623 18.8271C68.3177 19.055 68.165 19.3307 68.165 19.6543H66.8936C66.8936 19.2852 67.0234 18.9297 67.2832 18.5879C67.5475 18.2415 67.903 17.9681 68.3496 17.7676C68.8008 17.5671 69.2952 17.4668 69.833 17.4668C70.6852 17.4668 71.3529 17.681 71.8359 18.1094C72.319 18.5332 72.5697 19.1188 72.5879 19.8662V23.2705C72.5879 23.9495 72.6745 24.4896 72.8477 24.8906V25H71.5215ZM69.4229 24.0361C69.8193 24.0361 70.1953 23.9336 70.5508 23.7285C70.9062 23.5234 71.1637 23.2568 71.3232 22.9287V21.4111H70.332C68.7826 21.4111 68.0078 21.8646 68.0078 22.7715C68.0078 23.168 68.14 23.4779 68.4043 23.7012C68.6686 23.9245 69.0081 24.0361 69.4229 24.0361ZM75.9443 25H74.6797V14.5H75.9443V25Z" fill="white"/>
<path d="M36.8594 9.25391C36.6667 9.52995 36.3971 9.73698 36.0508 9.875C35.707 10.0104 35.306 10.0781 34.8477 10.0781C34.3841 10.0781 33.9727 9.97005 33.6133 9.75391C33.2539 9.53516 32.9753 9.22526 32.7773 8.82422C32.582 8.42318 32.4818 7.95833 32.4766 7.42969V6.93359C32.4766 6.07682 32.6758 5.41276 33.0742 4.94141C33.4753 4.47005 34.0378 4.23438 34.7617 4.23438C35.3555 4.23438 35.8333 4.38672 36.1953 4.69141C36.5573 4.99349 36.7786 5.42318 36.8594 5.98047H36.1094C35.9688 5.22786 35.5208 4.85156 34.7656 4.85156C34.263 4.85156 33.8815 5.02865 33.6211 5.38281C33.3633 5.73438 33.2331 6.24479 33.2305 6.91406V7.37891C33.2305 8.01693 33.3763 8.52474 33.668 8.90234C33.9596 9.27734 34.3542 9.46484 34.8516 9.46484C35.1328 9.46484 35.3789 9.43359 35.5898 9.37109C35.8008 9.30859 35.9753 9.20312 36.1133 9.05469V7.77734H34.7969V7.16797H36.8594V9.25391ZM39.7539 10.0781C39.181 10.0781 38.7148 9.89062 38.3555 9.51562C37.9961 9.13802 37.8164 8.63411 37.8164 8.00391V7.87109C37.8164 7.45182 37.8958 7.07812 38.0547 6.75C38.2161 6.41927 38.4401 6.16146 38.7266 5.97656C39.0156 5.78906 39.3281 5.69531 39.6641 5.69531C40.2135 5.69531 40.6406 5.8763 40.9453 6.23828C41.25 6.60026 41.4023 7.11849 41.4023 7.79297V8.09375H38.5391C38.5495 8.51042 38.6706 8.84766 38.9023 9.10547C39.1367 9.36068 39.4336 9.48828 39.793 9.48828C40.0482 9.48828 40.2643 9.4362 40.4414 9.33203C40.6185 9.22786 40.7734 9.08984 40.9062 8.91797L41.3477 9.26172C40.9935 9.80599 40.4622 10.0781 39.7539 10.0781ZM39.6641 6.28906C39.3724 6.28906 39.1276 6.39583 38.9297 6.60938C38.7318 6.82031 38.6094 7.11719 38.5625 7.5H40.6797V7.44531C40.6589 7.07812 40.5599 6.79427 40.3828 6.59375C40.2057 6.39062 39.9661 6.28906 39.6641 6.28906ZM43.2227 4.75V5.77344H44.0117V6.33203H43.2227V8.95312C43.2227 9.1224 43.2578 9.25 43.3281 9.33594C43.3984 9.41927 43.5182 9.46094 43.6875 9.46094C43.7708 9.46094 43.8854 9.44531 44.0312 9.41406V10C43.8411 10.0521 43.6562 10.0781 43.4766 10.0781C43.1536 10.0781 42.9102 9.98047 42.7461 9.78516C42.582 9.58984 42.5 9.3125 42.5 8.95312V6.33203H41.7305V5.77344H42.5V4.75H43.2227ZM47.6289 10H46.9062V5.77344H47.6289V10ZM46.8477 4.65234C46.8477 4.53516 46.8828 4.4362 46.9531 4.35547C47.026 4.27474 47.1328 4.23438 47.2734 4.23438C47.4141 4.23438 47.5208 4.27474 47.5938 4.35547C47.6667 4.4362 47.7031 4.53516 47.7031 4.65234C47.7031 4.76953 47.6667 4.86719 47.5938 4.94531C47.5208 5.02344 47.4141 5.0625 47.2734 5.0625C47.1328 5.0625 47.026 5.02344 46.9531 4.94531C46.8828 4.86719 46.8477 4.76953 46.8477 4.65234ZM49.7695 4.75V5.77344H50.5586V6.33203H49.7695V8.95312C49.7695 9.1224 49.8047 9.25 49.875 9.33594C49.9453 9.41927 50.0651 9.46094 50.2344 9.46094C50.3177 9.46094 50.4323 9.44531 50.5781 9.41406V10C50.388 10.0521 50.2031 10.0781 50.0234 10.0781C49.7005 10.0781 49.457 9.98047 49.293 9.78516C49.1289 9.58984 49.0469 9.3125 49.0469 8.95312V6.33203H48.2773V5.77344H49.0469V4.75H49.7695ZM53.1992 7.84766C53.1992 7.43359 53.2799 7.0612 53.4414 6.73047C53.6055 6.39974 53.832 6.14453 54.1211 5.96484C54.4128 5.78516 54.7448 5.69531 55.1172 5.69531C55.6927 5.69531 56.1576 5.89453 56.5117 6.29297C56.8685 6.69141 57.0469 7.22135 57.0469 7.88281V7.93359C57.0469 8.34505 56.9674 8.71484 56.8086 9.04297C56.6523 9.36849 56.4271 9.6224 56.1328 9.80469C55.8411 9.98698 55.5052 10.0781 55.125 10.0781C54.5521 10.0781 54.0872 9.87891 53.7305 9.48047C53.3763 9.08203 53.1992 8.55469 53.1992 7.89844V7.84766ZM53.9258 7.93359C53.9258 8.40234 54.0339 8.77865 54.25 9.0625C54.4688 9.34635 54.7604 9.48828 55.125 9.48828C55.4922 9.48828 55.7839 9.34505 56 9.05859C56.2161 8.76953 56.3242 8.36589 56.3242 7.84766C56.3242 7.38411 56.2135 7.00911 55.9922 6.72266C55.7734 6.43359 55.4818 6.28906 55.1172 6.28906C54.7604 6.28906 54.4727 6.43099 54.2539 6.71484C54.0352 6.9987 53.9258 7.40495 53.9258 7.93359ZM58.6367 5.77344L58.6602 6.30469C58.9831 5.89844 59.4049 5.69531 59.9258 5.69531C60.819 5.69531 61.2695 6.19922 61.2773 7.20703V10H60.5547V7.20312C60.5521 6.89844 60.4818 6.67318 60.3438 6.52734C60.2083 6.38151 59.9961 6.30859 59.707 6.30859C59.4727 6.30859 59.2669 6.37109 59.0898 6.49609C58.9128 6.62109 58.7747 6.78516 58.6758 6.98828V10H57.9531V5.77344H58.6367Z" fill="white"/>
</svg>
